<mxfile host="Electron" modified="2023-11-24T12:59:21.350Z" agent="Mozilla/5.0 (Windows NT 10.0; Win64; x64) AppleWebKit/537.36 (KHTML, like Gecko) draw.io/21.2.8 Chrome/112.0.5615.165 Electron/24.2.0 Safari/537.36" etag="Q06wFOt59dR44va1xROe" version="21.2.8" type="device">
  <diagram name="Page-1" id="4jEeTd7mvgLUH5QwcUFO">
    <mxGraphModel dx="2133" dy="2063" grid="1" gridSize="10" guides="1" tooltips="1" connect="1" arrows="1" fold="1" page="1" pageScale="1" pageWidth="827" pageHeight="1169" math="0" shadow="0">
      <root>
        <mxCell id="0" />
        <mxCell id="1" parent="0" />
        <mxCell id="0tOtyFdzudBUUS3pO6S--25" value="" style="rounded=0;whiteSpace=wrap;html=1;strokeWidth=2;fillColor=#f8cecc;strokeColor=#1d1b1b;" parent="1" vertex="1">
          <mxGeometry x="-120" y="-30" width="680" height="580" as="geometry" />
        </mxCell>
        <mxCell id="0tOtyFdzudBUUS3pO6S--22" value="" style="rounded=1;whiteSpace=wrap;html=1;strokeWidth=2;fillColor=#f5f5f5;fontColor=#333333;strokeColor=#121111;" parent="1" vertex="1">
          <mxGeometry x="250" y="313" width="270" height="161.25" as="geometry" />
        </mxCell>
        <mxCell id="0tOtyFdzudBUUS3pO6S--20" value="" style="rounded=1;whiteSpace=wrap;html=1;strokeWidth=2;fillColor=#d5e8d4;strokeColor=#0c100a;" parent="1" vertex="1">
          <mxGeometry x="250" y="133" width="270" height="161.25" as="geometry" />
        </mxCell>
        <mxCell id="0tOtyFdzudBUUS3pO6S--13" value="" style="rounded=1;whiteSpace=wrap;html=1;strokeWidth=2;fillColor=#fff2cc;strokeColor=#1A1A1A;" parent="1" vertex="1">
          <mxGeometry x="-80" y="90" width="300" height="440" as="geometry" />
        </mxCell>
        <mxCell id="0tOtyFdzudBUUS3pO6S--1" value="&lt;font face=&quot;Verdana&quot; size=&quot;1&quot; style=&quot;&quot;&gt;&lt;b style=&quot;font-size: 14px;&quot;&gt;NodeStatusUpdater&lt;/b&gt;&lt;/font&gt;" style="rounded=0;whiteSpace=wrap;html=1;strokeWidth=2;fillColor=#f5f5f5;strokeColor=#0b0a0a;fontColor=#333333;" parent="1" vertex="1">
          <mxGeometry x="-60" y="20" width="250" height="40" as="geometry" />
        </mxCell>
        <mxCell id="0tOtyFdzudBUUS3pO6S--2" value="&lt;font face=&quot;Verdana&quot; size=&quot;1&quot; style=&quot;&quot;&gt;&lt;b style=&quot;font-size: 14px;&quot;&gt;ContainerMonitor&lt;/b&gt;&lt;/font&gt;" style="rounded=0;whiteSpace=wrap;html=1;strokeWidth=2;fillColor=#f5f5f5;fontColor=#333333;strokeColor=#000000;" parent="1" vertex="1">
          <mxGeometry y="160" width="190" height="40" as="geometry" />
        </mxCell>
        <mxCell id="0tOtyFdzudBUUS3pO6S--3" value="&lt;font face=&quot;Verdana&quot; size=&quot;1&quot; style=&quot;&quot;&gt;&lt;b style=&quot;font-size: 14px;&quot;&gt;ResourceLocalization&lt;br&gt;Service&lt;/b&gt;&lt;/font&gt;" style="rounded=0;whiteSpace=wrap;html=1;strokeWidth=2;fillColor=#f5f5f5;fontColor=#333333;strokeColor=#000000;" parent="1" vertex="1">
          <mxGeometry y="220" width="190" height="40" as="geometry" />
        </mxCell>
        <mxCell id="0tOtyFdzudBUUS3pO6S--4" value="&lt;font face=&quot;Verdana&quot; size=&quot;1&quot; style=&quot;&quot;&gt;&lt;b style=&quot;font-size: 14px;&quot;&gt;ContainersLauncher&lt;/b&gt;&lt;/font&gt;" style="rounded=0;whiteSpace=wrap;html=1;strokeWidth=2;fillColor=#dae8fc;strokeColor=#131415;" parent="1" vertex="1">
          <mxGeometry y="280" width="190" height="40" as="geometry" />
        </mxCell>
        <mxCell id="0tOtyFdzudBUUS3pO6S--5" value="&lt;font face=&quot;Verdana&quot; size=&quot;1&quot; style=&quot;&quot;&gt;&lt;b style=&quot;font-size: 14px;&quot;&gt;AuxServices&lt;/b&gt;&lt;/font&gt;" style="rounded=0;whiteSpace=wrap;html=1;strokeWidth=2;fillColor=#f5f5f5;fontColor=#333333;strokeColor=#000000;" parent="1" vertex="1">
          <mxGeometry y="342.5" width="190" height="40" as="geometry" />
        </mxCell>
        <mxCell id="0tOtyFdzudBUUS3pO6S--6" value="&lt;font face=&quot;Verdana&quot; size=&quot;1&quot; style=&quot;&quot;&gt;&lt;b style=&quot;font-size: 14px;&quot;&gt;LogHandler&lt;/b&gt;&lt;/font&gt;" style="rounded=0;whiteSpace=wrap;html=1;strokeWidth=2;fillColor=#f5f5f5;fontColor=#333333;strokeColor=#000000;" parent="1" vertex="1">
          <mxGeometry y="400" width="190" height="40" as="geometry" />
        </mxCell>
        <mxCell id="0tOtyFdzudBUUS3pO6S--7" value="&lt;font face=&quot;Verdana&quot; size=&quot;1&quot; style=&quot;&quot;&gt;&lt;b style=&quot;font-size: 14px;&quot;&gt;ContainerEvent&lt;br&gt;Dispatcher&lt;/b&gt;&lt;/font&gt;" style="rounded=0;whiteSpace=wrap;html=1;strokeWidth=2;fillColor=#dae8fc;strokeColor=#000000;" parent="1" vertex="1">
          <mxGeometry y="460" width="190" height="40" as="geometry" />
        </mxCell>
        <mxCell id="0tOtyFdzudBUUS3pO6S--9" value="&lt;font face=&quot;Verdana&quot; size=&quot;1&quot; style=&quot;&quot;&gt;&lt;b style=&quot;font-size: 14px;&quot;&gt;RPC Server&lt;/b&gt;&lt;/font&gt;" style="rounded=0;whiteSpace=wrap;html=1;rotation=-90;strokeWidth=2;fillColor=#f5f5f5;fontColor=#333333;strokeColor=#160909;" parent="1" vertex="1">
          <mxGeometry x="-211.25" y="311.25" width="338.75" height="35" as="geometry" />
        </mxCell>
        <mxCell id="0tOtyFdzudBUUS3pO6S--10" value="&lt;font face=&quot;Verdana&quot; size=&quot;1&quot; style=&quot;&quot;&gt;&lt;b style=&quot;font-size: 14px;&quot;&gt;WebServer&lt;/b&gt;&lt;/font&gt;" style="rounded=0;whiteSpace=wrap;html=1;strokeWidth=2;fillColor=#f5f5f5;strokeColor=#0e0c0c;fontColor=#333333;" parent="1" vertex="1">
          <mxGeometry x="280" y="20" width="210" height="40" as="geometry" />
        </mxCell>
        <mxCell id="0tOtyFdzudBUUS3pO6S--11" value="&lt;font face=&quot;Verdana&quot; size=&quot;1&quot; style=&quot;&quot;&gt;&lt;b style=&quot;font-size: 14px;&quot;&gt;DeletionService&lt;/b&gt;&lt;/font&gt;" style="rounded=0;whiteSpace=wrap;html=1;strokeWidth=2;fillColor=#f5f5f5;fontColor=#333333;strokeColor=#000000;" parent="1" vertex="1">
          <mxGeometry x="280" y="80" width="210" height="40" as="geometry" />
        </mxCell>
        <mxCell id="0tOtyFdzudBUUS3pO6S--14" value="&lt;b style=&quot;border-color: var(--border-color); color: rgb(0, 0, 0); font-style: normal; font-variant-ligatures: normal; font-variant-caps: normal; letter-spacing: normal; orphans: 2; text-align: center; text-indent: 0px; text-transform: none; widows: 2; word-spacing: 0px; -webkit-text-stroke-width: 0px; text-decoration-thickness: initial; text-decoration-style: initial; text-decoration-color: initial;&quot;&gt;&lt;font face=&quot;Verdana&quot; style=&quot;font-size: 18px;&quot;&gt;ContainerManager&lt;/font&gt;&lt;/b&gt;" style="text;whiteSpace=wrap;html=1;strokeWidth=2;" parent="1" vertex="1">
          <mxGeometry x="-22" y="100" width="130" height="30" as="geometry" />
        </mxCell>
        <mxCell id="0tOtyFdzudBUUS3pO6S--15" value="&lt;font face=&quot;Verdana&quot; size=&quot;1&quot; style=&quot;&quot;&gt;&lt;b style=&quot;font-size: 14px;&quot;&gt;LocalDirsHandlerService&lt;/b&gt;&lt;/font&gt;" style="rounded=0;whiteSpace=wrap;html=1;strokeWidth=2;fillColor=#f5f5f5;fontColor=#333333;strokeColor=#000000;" parent="1" vertex="1">
          <mxGeometry x="280" y="173" width="210" height="40" as="geometry" />
        </mxCell>
        <mxCell id="0tOtyFdzudBUUS3pO6S--16" value="&lt;font face=&quot;Verdana&quot; size=&quot;1&quot; style=&quot;&quot;&gt;&lt;b style=&quot;font-size: 14px;&quot;&gt;NodeHealthScriptRunner&lt;/b&gt;&lt;/font&gt;" style="rounded=0;whiteSpace=wrap;html=1;strokeWidth=2;fillColor=#f5f5f5;fontColor=#333333;strokeColor=#000000;" parent="1" vertex="1">
          <mxGeometry x="280" y="233" width="210" height="40" as="geometry" />
        </mxCell>
        <mxCell id="0tOtyFdzudBUUS3pO6S--17" value="&lt;font face=&quot;Verdana&quot; size=&quot;1&quot; style=&quot;&quot;&gt;&lt;b style=&quot;font-size: 14px;&quot;&gt;ApplicationACLsManager&lt;/b&gt;&lt;/font&gt;" style="rounded=0;whiteSpace=wrap;html=1;strokeWidth=2;" parent="1" vertex="1">
          <mxGeometry x="280" y="363" width="210" height="40" as="geometry" />
        </mxCell>
        <mxCell id="0tOtyFdzudBUUS3pO6S--18" value="&lt;font face=&quot;Verdana&quot; size=&quot;1&quot; style=&quot;&quot;&gt;&lt;b style=&quot;font-size: 14px;&quot;&gt;ContainerTokens&lt;br&gt;SecretManager&lt;/b&gt;&lt;/font&gt;" style="rounded=0;whiteSpace=wrap;html=1;strokeWidth=2;" parent="1" vertex="1">
          <mxGeometry x="280" y="413" width="210" height="40" as="geometry" />
        </mxCell>
        <mxCell id="0tOtyFdzudBUUS3pO6S--21" value="&lt;b style=&quot;border-color: var(--border-color); color: rgb(0, 0, 0); font-style: normal; font-variant-ligatures: normal; font-variant-caps: normal; letter-spacing: normal; orphans: 2; text-indent: 0px; text-transform: none; widows: 2; word-spacing: 0px; -webkit-text-stroke-width: 0px; text-decoration-thickness: initial; text-decoration-style: initial; text-decoration-color: initial; text-align: center;&quot;&gt;&lt;font face=&quot;Verdana&quot; style=&quot;border-color: var(--border-color); font-size: 14px;&quot;&gt;NodeHealthCheckerService&lt;/font&gt;&lt;/b&gt;" style="text;whiteSpace=wrap;html=1;strokeWidth=2;" parent="1" vertex="1">
          <mxGeometry x="280" y="135" width="180" height="50" as="geometry" />
        </mxCell>
        <mxCell id="0tOtyFdzudBUUS3pO6S--23" value="&lt;b style=&quot;border-color: var(--border-color); color: rgb(0, 0, 0); font-size: 12px; font-style: normal; font-variant-ligatures: normal; font-variant-caps: normal; letter-spacing: normal; orphans: 2; text-indent: 0px; text-transform: none; widows: 2; word-spacing: 0px; -webkit-text-stroke-width: 0px; text-decoration-thickness: initial; text-decoration-style: initial; text-decoration-color: initial; text-align: center; background-color: rgb(251, 251, 251);&quot;&gt;&lt;font face=&quot;Verdana&quot; style=&quot;border-color: var(--border-color); font-size: 18px;&quot;&gt;Security&lt;/font&gt;&lt;/b&gt;" style="text;whiteSpace=wrap;html=1;strokeWidth=2;" parent="1" vertex="1">
          <mxGeometry x="337" y="320.5" width="100" height="50" as="geometry" />
        </mxCell>
        <mxCell id="0tOtyFdzudBUUS3pO6S--24" value="&lt;font face=&quot;Verdana&quot; size=&quot;1&quot; style=&quot;&quot;&gt;&lt;b style=&quot;font-size: 14px;&quot;&gt;ContainerExecutor&lt;/b&gt;&lt;/font&gt;" style="rounded=0;whiteSpace=wrap;html=1;strokeWidth=2;fillColor=#cce5ff;strokeColor=#000000;" parent="1" vertex="1">
          <mxGeometry x="280" y="490" width="210" height="40" as="geometry" />
        </mxCell>
        <mxCell id="1WrVcNCAFe27ASerb1jC-3" value="&lt;b&gt;&lt;font style=&quot;font-size: 18px;&quot; face=&quot;Verdana&quot;&gt;NodeManager&lt;/font&gt;&lt;/b&gt;" style="text;html=1;align=center;verticalAlign=middle;resizable=0;points=[];autosize=1;strokeColor=none;fillColor=none;" vertex="1" parent="1">
          <mxGeometry x="160" y="-30" width="160" height="40" as="geometry" />
        </mxCell>
      </root>
    </mxGraphModel>
  </diagram>
</mxfile>
